<svg height="512" viewBox="0 0 58 50" width="512" xmlns="http://www.w3.org/2000/svg"><g id="Page-1" fill="none" fill-rule="evenodd"><g id="017---Parmesan"><path id="Path" d="m58 17v16c0 3.29-2.24 6.36-5 8.96l-1-16z" fill="#f0c419"/><path id="Path" d="m29 34v14.98c.0002833.2696936-.1074126.5282761-.2990519.7180366-.1916394.1897606-.4512704.2949037-.7209481.2919634-15.55-.32-27.98-7.8-27.98-16.99v-16z" fill="#f0c419"/><path id="Path" d="m58 17c0 3.29-2.24 6.36-5 8.96l-24-7.46v15.5c-16.02 0-29-7.61-29-17s12.98-17 29-17 29 7.61 29 17z" fill="#f3d55b"/><path id="Path" d="m4.087 17.015c-.29542499.0005109-.57595745-.1296318-.7663525-.355521s-.27116569-.524405-.2206475-.815479c.935-5.4 7.958-10.248 17.474-12.069.3510134-.0669873.7111005.05837733.94462.32887024.2335194.27049291.304994.64501979.1875.9825-.1174941.3374802-.4061066.58664246-.75712.65362976-10 1.912-15.239 6.755-15.879 10.446-.08301104.478302-.49754923.8278973-.983.829z" fill="#f5efca"/><path id="Path" d="m53 25.96v16l-24-10.96v-16z" fill="#f29c1f"/><g fill="#e57e25"><circle id="Oval" cx="35.5" cy="25.5" r="2.5"/><circle id="Oval" cx="47.5" cy="31.5" r="2.5"/><circle id="Oval" cx="38" cy="31" r="1"/><circle id="Oval" cx="41" cy="25" r="1"/><circle id="Oval" cx="42" cy="30" r="1"/></g></g></g></svg>