<svg id="Capa_1" enable-background="new 0 0 497 497" height="512" viewBox="0 0 497 497" width="512" xmlns="http://www.w3.org/2000/svg"><g><path d="m248.5 0c-63.532 0-121.485 23.854-165.421 63.079-39.225 43.936-73.079 111.889-73.079 175.421 0 137.243 111.257 248.5 248.5 248.5 63.532 0 131.485-33.854 175.421-73.079 39.225-43.936 63.079-101.889 63.079-165.421 0-137.243-111.257-248.5-248.5-248.5z" fill="#e2f2f6"/><path d="m404.194 136.956c0-29.827-24.18-54.007-54.007-54.007-13.105-26.794-45.449-37.892-72.244-24.787-23.544-18.312-57.476-14.07-75.788 9.474-13.994-2.926-27.847-.138-39.16 6.761-11.47 8.105-18.672 30.156-18.672 41.961-25.716 5.764-46.813 30.15-38.023 75.54 21.795 41.235 87.549 122.346 168.307 131.116 94.255 10.235 151.574-108.089 151.574-108.089 15.905-32.52 4.807-64.865-21.987-77.969z" fill="#fff0af"/><path d="m120.602 180.429c-12.193-27.045 2.882-56.756 28.599-62.52 0-11.805 2.325-35.408 13.795-43.513-12.29 7.495-21.58 19.845-24.759 35.047-28.91 7.342-46.393 36.731-39.051 65.64 1.051 4.14 3.472 9.922 7.114 16.814 10.66.207 17.57-4.22 14.302-11.468z" fill="#ffe07d"/><path d="m20 228.5c0-63.532 23.854-121.485 63.079-165.421-50.975 45.508-83.079 111.711-83.079 185.421 0 137.243 111.257 248.5 248.5 248.5 73.71 0 139.913-32.104 185.421-83.079-43.936 39.225-101.889 63.079-165.421 63.079-137.243 0-248.5-111.257-248.5-248.5z" fill="#c1e4fa"/><circle cx="224.858" cy="173.357" fill="#ffe07d" r="15"/><circle cx="356.379" cy="180.429" fill="#ffe07d" r="15"/><path d="m205.758 250.986c-22.605 10.094-40.203 24.717-40.203 43.045 0 46.031 107.601 88.896 106.228 104.561s6.291 30.555 21.644 33.955c15.353 3.399 30.555-6.291 33.955-21.644 11.119 11.119 29.147 11.119 40.266 0s11.119-29.147 0-40.266c6.124-1.355 11.342-4.592 15.193-8.964l-41.209-69.291z" fill="#98ca91"/><path d="m389.294 336.684c-3.398-15.353-67.459-83.639-90.119-97.508-13.637-8.347-59.251-3.445-93.417 11.81 1.185 7.898 5.774 15.469 12.578 21.176 12.048 10.106 28.576 26.658 34.792 52.488s47.287 26.23 53.503.4c1.019-4.233-2.605-8.612-1.097-12.359 1.677.802 3.488 1.474 5.47 1.95 25.83 6.216 42.385 22.748 52.491 34.796 5.265 6.276 12.116 10.662 19.346 12.236 5.803-6.589 8.495-15.76 6.453-24.989z" fill="#68b181"/><circle cx="304.175" cy="348.013" fill="#68b181" r="15"/><path d="m426.51 303.824c15.725 0 28.473-12.748 28.473-28.473s-12.748-28.473-28.473-28.473c8.452-13.26 4.555-30.862-8.705-39.314s-29.208-3.343-39.314 8.705-26.658 28.576-52.488 34.792-25.83 42.363 0 48.579 42.385 22.748 52.491 34.796 26.055 17.155 39.315 8.701c13.259-8.452 17.155-26.054 8.701-39.313z" fill="#98ca91"/><path d="m236.928 422.695c0 15.725-12.748 28.473-28.473 28.473s-28.473-12.748-28.473-28.473c-13.26 8.452-30.862 4.555-39.314-8.705s-3.343-29.208 8.705-39.314 28.576-26.658 34.792-52.488 42.363-25.83 48.579 0 22.748 42.385 34.796 52.491 17.155 26.055 8.702 39.315c-8.453 13.259-26.055 17.155-39.314 8.701z" fill="#c2e4a1"/><circle cx="194.07" cy="370.64" fill="#98ca91" r="15"/><path d="m231.241 252.331c.169-45.297-40.906-82.201-91.742-82.39-22.017-.082-42.251 6.74-58.133 18.176-16.365 15.269-19.16 32.518-19.219 48.529-.168 45.297 34.122 78.788 40.879 104.409 6.756 25.62 22.558 47.876 50.603 47.981 8.268.031 20.478-6.884 26.724-10.237 4.018-6.74 7.066-14.386 9.235-22.366 6.948-25.569 41.485-58.805 41.653-104.102z" fill="#c38778"/><path d="m320.89 209.143c0-15.725-12.748-28.473-28.473-28.473s-28.473 12.748-28.473 28.473c-13.26-8.452-30.862-4.555-39.314 8.705s-3.343 29.208 8.705 39.314 28.576 26.658 34.792 52.488 42.363 25.83 48.579 0 22.748-42.385 34.796-52.491 17.155-26.055 8.701-39.315c-8.452-13.259-26.054-17.155-39.313-8.701z" fill="#c2e4a1"/><circle cx="313.125" cy="273.767" fill="#98ca91" r="15"/><path d="m108.025 336.055c-6.756-25.621-41.047-59.112-40.879-104.409.06-16.011 5.269-30.932 14.219-43.529-20.79 14.97-34.124 37.85-34.219 63.529-.168 45.297 34.122 78.788 40.879 104.409 6.756 25.62 22.558 47.876 50.603 47.981 19.292.072 32.868-10.382 41.724-25.237-6.247 3.353-13.456 5.268-21.724 5.237-28.045-.104-43.847-22.36-50.603-47.981z" fill="#b1705b"/><path d="m165.269 339.231h-47.022c-4.142 0-7.5-3.358-7.5-7.5s3.358-7.5 7.5-7.5h47.022c4.142 0 7.5 3.358 7.5 7.5s-3.358 7.5-7.5 7.5z" fill="#b1705b"/><path d="m190.573 284.827h-102.599c-4.142 0-7.5-3.358-7.5-7.5s3.358-7.5 7.5-7.5h102.599c4.142 0 7.5 3.358 7.5 7.5s-3.358 7.5-7.5 7.5z" fill="#b1705b"/><path d="m182.224 232.979h-86.998c-4.142 0-7.5-3.358-7.5-7.5s3.358-7.5 7.5-7.5h86.999c4.142 0 7.5 3.358 7.5 7.5s-3.359 7.5-7.501 7.5z" fill="#b1705b"/><g fill="#ffc250"><circle cx="234.858" cy="163.357" r="15"/><circle cx="366.379" cy="170.429" r="15"/><circle cx="323.125" cy="263.767" r="15"/><circle cx="204.07" cy="360.64" r="15"/><circle cx="314.175" cy="338.013" r="15"/></g></g></svg>