<svg height="512pt" viewBox="0 -72 512 511" width="512pt" xmlns="http://www.w3.org/2000/svg"><path d="m255.347656 150.261719c-4.25 0-7.699218-3.445313-7.699218-7.699219v-77.402344c0-4.253906 3.449218-7.699218 7.699218-7.699218 4.253906 0 7.703125 3.445312 7.703125 7.699218v77.402344c0 4.253906-3.449219 7.699219-7.703125 7.699219zm0 0" fill="#ee4a84"/><path d="m280.328125 167.542969c0 13.796875-11.183594 24.980469-24.980469 24.980469s-24.980468-11.183594-24.980468-24.980469 11.183593-24.980469 24.980468-24.980469 24.980469 11.183594 24.980469 24.980469zm0 0" fill="#0470b2"/><path d="m298.703125 235.878906c0 23.941406-19.410156 43.351563-43.355469 43.351563-23.941406 0-43.351562-19.410157-43.351562-43.351563 0-23.945312 19.410156-43.355468 43.351562-43.355468 23.945313 0 43.355469 19.410156 43.355469 43.355468zm0 0" fill="#fab700"/><path d="m133.527344 114.925781c-4.253906 0-7.703125-3.445312-7.703125-7.699219v-77.402343c0-4.253907 3.449219-7.699219 7.703125-7.699219 4.25 0 7.699218 3.445312 7.699218 7.699219v77.402343c0 4.253907-3.449218 7.699219-7.699218 7.699219zm0 0" fill="#ee4a84"/><path d="m375.632812 93.300781c-4.253906 0-7.699218-3.445312-7.699218-7.699219v-77.402343c0-4.253907 3.445312-7.699219 7.699218-7.699219 4.253907 0 7.699219 3.445312 7.699219 7.699219v77.402343c0 4.253907-3.445312 7.699219-7.699219 7.699219zm0 0" fill="#ee4a84"/><path d="m154.777344 192.265625h-42.503906c-11.746094 0-21.265626-9.523437-21.265626-21.269531v-42.503906c0-11.746094 9.519532-21.265626 21.265626-21.265626h42.503906c11.746094 0 21.269531 9.519532 21.269531 21.265626v42.503906c0 11.746094-9.523437 21.269531-21.269531 21.269531zm0 0" fill="#f7c6ba"/><path d="m184.421875 220.601562h-101.792969c-5.035156 0-9.117187-4.082031-9.117187-9.117187v-10.101563c0-5.035156 4.082031-9.117187 9.117187-9.117187h101.792969c5.035156 0 9.117187 4.082031 9.117187 9.117187v10.101563c0 5.035156-4.082031 9.117187-9.117187 9.117187zm0 0" fill="#1dc2ff"/><path d="m173.929688 260.230469h-80.808594c-5.035156 0-9.117188-4.082031-9.117188-9.117188v-21.394531c0-5.035156 4.082032-9.117188 9.117188-9.117188h80.808594c5.035156 0 9.117187 4.082032 9.117187 9.117188v21.394531c0 5.035157-4.082031 9.117188-9.117187 9.117188zm0 0" fill="#fab700"/><path d="m396.886719 260.230469h-42.503907c-11.746093 0-21.269531-9.519531-21.269531-21.265625v-42.503906c0-11.746094 9.523438-21.269532 21.269531-21.269532h42.503907c11.746093 0 21.265625 9.523438 21.265625 21.269532v42.503906c0 11.746094-9.519532 21.265625-21.265625 21.265625zm0 0" fill="#f7c6ba"/><path d="m416.035156 125.230469h-80.804687c-5.035157 0-9.117188-4.082031-9.117188-9.117188v-21.394531c0-5.035156 4.082031-9.117188 9.117188-9.117188h80.804687c5.039063 0 9.121094 4.082032 9.121094 9.117188v21.394531c0 5.035157-4.082031 9.117188-9.121094 9.117188zm0 0" fill="#fab700"/><path d="m400.613281 150.210938c0 13.796874-11.183593 24.980468-24.980469 24.980468-13.796874 0-24.980468-11.183594-24.980468-24.980468 0-13.796876 11.183594-24.980469 24.980468-24.980469 13.796876 0 24.980469 11.183593 24.980469 24.980469zm0 0" fill="#0470b2"/><path d="m154.210938 107.226562h-33.449219c12.058593 0 21.832031 9.773438 21.832031 21.832032v41.375c0 12.058594-9.773438 21.832031-21.832031 21.832031h33.449219c12.058593 0 21.835937-9.773437 21.835937-21.832031v-41.375c0-12.058594-9.777344-21.832032-21.835937-21.832032zm0 0" fill="#f4ada5"/><path d="m396.320312 175.191406h-33.449218c12.058594 0 21.832031 9.777344 21.832031 21.832032v41.375c0 12.058593-9.773437 21.832031-21.832031 21.832031h33.449218c12.058594 0 21.832032-9.773438 21.832032-21.832031v-41.375c0-12.054688-9.773438-21.832032-21.832032-21.832032zm0 0" fill="#f4ada5"/><path d="m173.6875 220.601562h-29.070312c5.171874 0 9.363281 4.191407 9.363281 9.363282v20.90625c0 5.167968-4.191407 9.359375-9.363281 9.359375h29.070312c5.167969 0 9.359375-4.191407 9.359375-9.359375v-20.90625c0-5.171875-4.191406-9.363282-9.359375-9.363282zm0 0" fill="#faa200"/><path d="m415.792969 85.601562h-29.066407c5.167969 0 9.359376 4.191407 9.359376 9.359376v20.910156c0 5.167968-4.191407 9.359375-9.359376 9.359375h29.066407c5.171875 0 9.363281-4.191407 9.363281-9.359375v-20.910156c0-5.167969-4.191406-9.359376-9.363281-9.359376zm0 0" fill="#faa200"/><path d="m377.472656 125.304688c2.996094 4.121093 4.769532 9.191406 4.769532 14.675781 0 13.792969-11.183594 24.980469-24.980469 24.980469-.621094 0-1.234375-.03125-1.839844-.074219 4.539063 6.242187 11.898437 10.304687 20.210937 10.304687 13.796876 0 24.980469-11.183594 24.980469-24.980468 0-13.175782-10.203125-23.960938-23.140625-24.90625zm0 0" fill="#005ca0"/><path d="m184.179688 192.265625h-26.9375c5.167968 0 9.359374 4.191406 9.359374 9.359375v9.617188c0 5.167968-4.191406 9.359374-9.359374 9.359374h26.9375c5.167968 0 9.359374-4.191406 9.359374-9.359374v-9.617188c0-5.167969-4.191406-9.359375-9.359374-9.359375zm0 0" fill="#00a2ff"/><path d="m257.1875 142.636719c2.996094 4.121093 4.769531 9.1875 4.769531 14.671875 0 13.796875-11.183593 24.980468-24.980469 24.980468-.621093 0-1.234374-.027343-1.839843-.074218 4.539062 6.246094 11.898437 10.308594 20.210937 10.308594 13.796875 0 24.980469-11.183594 24.980469-24.980469 0-13.175781-10.203125-23.964844-23.140625-24.90625zm0 0" fill="#005ca0"/><path d="m255.347656 192.523438c-4.71875 0-9.261718.765624-13.515625 2.160156 17.320313 5.683594 29.835938 21.972656 29.835938 41.195312 0 19.21875-12.515625 35.507813-29.835938 41.191406 4.253907 1.394532 8.796875 2.160157 13.515625 2.160157 23.945313 0 43.355469-19.410157 43.355469-43.351563 0-23.945312-19.410156-43.355468-43.355469-43.355468zm0 0" fill="#faa200"/><path d="m422.050781 368.355469h-333.402343c-23.238282 0-42.074219-18.839844-42.074219-42.078125v-43.222656h417.550781v43.222656c0 23.238281-18.839844 42.078125-42.074219 42.078125zm0 0" fill="#ed500a"/><path d="m405.941406 283.054688v17.800781c0 23.859375-19.339844 43.195312-43.195312 43.195312h-311.828125c7.011719 14.386719 21.769531 24.304688 38.851562 24.304688h331.160157c23.855468 0 43.195312-19.339844 43.195312-43.195313v-42.105468zm0 0" fill="#d1390a"/><path d="m504 298.015625h-496c-4.417969 0-8-3.582031-8-8v-21.785156c0-4.417969 3.582031-8 8-8h496c4.417969 0 8 3.582031 8 8v21.785156c0 4.417969-3.582031 8-8 8zm0 0" fill="#ff6914"/><path d="m503.785156 260.230469h-63.335937c4.535156 0 8.210937 3.679687 8.210937 8.214843v21.359376c0 4.535156-3.675781 8.210937-8.210937 8.210937h63.335937c4.539063 0 8.214844-3.675781 8.214844-8.210937v-21.359376c0-4.535156-3.675781-8.214843-8.214844-8.214843zm0 0" fill="#ed500a"/></svg>